<svg width="19" height="18" viewBox="0 0 19 18" fill="none" xmlns="http://www.w3.org/2000/svg">
<path d="M6.87058 15.75C7.48852 15.75 7.98946 15.2463 7.98946 14.625C7.98946 14.0037 7.48852 13.5 6.87058 13.5C6.25265 13.5 5.75171 14.0037 5.75171 14.625C5.75171 15.2463 6.25265 15.75 6.87058 15.75Z" fill="white"/>
<path d="M14.7054 15.75C15.3234 15.75 15.8243 15.2463 15.8243 14.625C15.8243 14.0037 15.3234 13.5 14.7054 13.5C14.0875 13.5 13.5865 14.0037 13.5865 14.625C13.5865 15.2463 14.0875 15.75 14.7054 15.75Z" fill="white"/>
<path d="M16.6925 4.24617C16.6139 4.14951 16.5148 4.07166 16.4025 4.01827C16.2902 3.96487 16.1675 3.93728 16.0433 3.9375H5.39804L5.18363 2.71477C5.16077 2.58452 5.09298 2.46654 4.99217 2.38154C4.89136 2.29655 4.76397 2.24997 4.63239 2.25H2.39386C2.24544 2.25 2.10309 2.30926 1.99814 2.41475C1.89319 2.52024 1.83423 2.66332 1.83423 2.8125C1.83423 2.96168 1.89319 3.10476 1.99814 3.21025C2.10309 3.31574 2.24544 3.375 2.39386 3.375H4.163L5.76005 12.4727C5.78292 12.603 5.85071 12.721 5.95152 12.806C6.05233 12.891 6.17971 12.9375 6.31129 12.9375H15.2654C15.4138 12.9375 15.5562 12.8782 15.6611 12.7727C15.7661 12.6673 15.8251 12.5242 15.8251 12.375C15.8251 12.2258 15.7661 12.0827 15.6611 11.9773C15.5562 11.8718 15.4138 11.8125 15.2654 11.8125H6.78068L6.58341 10.6875H15.036C15.23 10.6873 15.4181 10.6196 15.5682 10.496C15.7184 10.3725 15.8215 10.2005 15.86 10.0093L16.8674 4.94684C16.8916 4.82432 16.8885 4.69791 16.8583 4.57674C16.8281 4.45557 16.7714 4.34266 16.6925 4.24617Z" fill="currentcolor"/>
</svg>
