<svg width="97" height="96" viewBox="0 0 97 96" fill="none" xmlns="http://www.w3.org/2000/svg">
<g filter="url(#filter0_dd_448_622)">
<circle cx="40.75" cy="40" r="28" fill="#D8801E"/>
</g>
<path d="M35.3101 41.9596C37.1901 41.9596 38.6967 43.481 38.6967 45.3743V49.9196C38.6967 51.7996 37.1901 53.333 35.3101 53.333H30.8034C28.9367 53.333 27.4167 51.7996 27.4167 49.9196V45.3743C27.4167 43.481 28.9367 41.9596 30.8034 41.9596H35.3101ZM50.6969 41.9596C52.5635 41.9596 54.0835 43.481 54.0835 45.3743V49.9196C54.0835 51.7996 52.5635 53.333 50.6969 53.333H46.1902C44.3102 53.333 42.8035 51.7996 42.8035 49.9196V45.3743C42.8035 43.481 44.3102 41.9596 46.1902 41.9596H50.6969ZM35.3101 26.6667C37.1901 26.6667 38.6967 28.2 38.6967 30.0814V34.6267C38.6967 36.52 37.1901 38.04 35.3101 38.04H30.8034C28.9367 38.04 27.4167 36.52 27.4167 34.6267V30.0814C27.4167 28.2 28.9367 26.6667 30.8034 26.6667H35.3101ZM50.6969 26.6667C52.5635 26.6667 54.0835 28.2 54.0835 30.0814V34.6267C54.0835 36.52 52.5635 38.04 50.6969 38.04H46.1902C44.3102 38.04 42.8035 36.52 42.8035 34.6267V30.0814C42.8035 28.2 44.3102 26.6667 46.1902 26.6667H50.6969Z" fill="white"/>
<defs>
<filter id="filter0_dd_448_622" x="0.75" y="0" width="96" height="96" filterUnits="userSpaceOnUse" color-interpolation-filters="sRGB">
<feFlood flood-opacity="0" result="BackgroundImageFix"/>
<feColorMatrix in="SourceAlpha" type="matrix" values="0 0 0 0 0 0 0 0 0 0 0 0 0 0 0 0 0 0 127 0" result="hardAlpha"/>
<feOffset dx="8" dy="8"/>
<feGaussianBlur stdDeviation="10"/>
<feComposite in2="hardAlpha" operator="out"/>
<feColorMatrix type="matrix" values="0 0 0 0 0 0 0 0 0 0 0 0 0 0 0 0 0 0 0.06 0"/>
<feBlend mode="normal" in2="BackgroundImageFix" result="effect1_dropShadow_448_622"/>
<feColorMatrix in="SourceAlpha" type="matrix" values="0 0 0 0 0 0 0 0 0 0 0 0 0 0 0 0 0 0 127 0" result="hardAlpha"/>
<feOffset dy="4"/>
<feGaussianBlur stdDeviation="2"/>
<feComposite in2="hardAlpha" operator="out"/>
<feColorMatrix type="matrix" values="0 0 0 0 0 0 0 0 0 0 0 0 0 0 0 0 0 0 0.25 0"/>
<feBlend mode="normal" in2="effect1_dropShadow_448_622" result="effect2_dropShadow_448_622"/>
<feBlend mode="normal" in="SourceGraphic" in2="effect2_dropShadow_448_622" result="shape"/>
</filter>
</defs>
</svg>
