<svg width="22" height="22" viewBox="0 0 22 22" fill="none" xmlns="http://www.w3.org/2000/svg">
<g clip-path="url(#clip0_442_3171)">
<path d="M21.0834 15.5833C21.0834 18.6175 18.6175 21.0833 15.5834 21.0833V19.7083C17.875 19.7083 19.7084 17.875 19.7084 15.5833H21.0834ZM0.916693 6.41663C0.916693 3.38246 3.38253 0.916626 6.41669 0.916626V2.29163C4.12503 2.29163 2.29169 4.12496 2.29169 6.41663H0.916693ZM7.33336 3.95996L3.12586 8.17663C0.174193 11.1283 0.174193 15.9225 3.12586 18.8741C6.07753 21.8258 10.8717 21.8258 13.8234 18.8741L20.3042 12.375C20.7534 11.9441 20.7534 11.22 20.3042 10.7708C20.1978 10.6641 20.0713 10.5794 19.9321 10.5217C19.7929 10.4639 19.6437 10.4342 19.4929 10.4342C19.3422 10.4342 19.193 10.4639 19.0538 10.5217C18.9146 10.5794 18.7881 10.6641 18.6817 10.7708L14.63 14.8225L13.9792 14.1716L19.9742 8.17663C20.4234 7.72746 20.4234 7.00329 19.9742 6.55413C19.525 6.10496 18.7917 6.10496 18.3334 6.55413L13.0075 11.9166L12.375 11.2475L18.6725 4.93163C19.1217 4.48246 19.1217 3.75829 18.6725 3.30913C18.2234 2.85996 17.4992 2.85996 17.05 3.30913L10.7342 9.62496L10.0834 8.98329L15.125 3.95996C15.5834 3.51079 15.5834 2.78663 15.125 2.33746C14.6667 1.88829 13.9517 1.88829 13.5025 2.33746L6.51753 9.32246C7.06445 10.028 7.33544 10.9086 7.27976 11.7996C7.22408 12.6905 6.84554 13.5306 6.21503 14.1625L5.56419 13.5116C6.07918 12.996 6.36844 12.297 6.36844 11.5683C6.36844 10.8395 6.07918 10.1406 5.56419 9.62496L5.24336 9.30412L8.97419 5.57329C9.42336 5.12413 9.42336 4.39996 8.97419 3.95079C8.51586 3.51079 7.79169 3.51079 7.33336 3.95996Z" fill="white"/>
</g>
<defs>
<clipPath id="clip0_442_3171">
<rect width="22" height="22" fill="white"/>
</clipPath>
</defs>
</svg>
