<svg width="64" height="57" viewBox="0 0 64 57" fill="none" xmlns="http://www.w3.org/2000/svg">
<path d="M47 0C49.3542 0 51.5625 0.4375 53.625 1.3125C55.6875 2.1875 57.4792 3.39583 59 4.9375C60.5208 6.47917 61.7292 8.28125 62.625 10.3438C63.5208 12.4062 63.9688 14.6146 63.9688 16.9688C63.9688 18.1771 63.8438 19.375 63.5938 20.5625C63.3438 21.75 62.9688 22.8958 62.4688 24H48L42 17.75L32 27.75L18 13.75L8 24H1.53125C1.03125 22.8958 0.65625 21.75 0.40625 20.5625C0.15625 19.375 0.03125 18.1771 0.03125 16.9688C0.03125 14.6146 0.46875 12.4062 1.34375 10.3438C2.21875 8.28125 3.42708 6.48958 4.96875 4.96875C6.51042 3.44792 8.3125 2.23958 10.375 1.34375C12.4375 0.447917 14.6458 0 17 0C19.2708 0 21.4375 0.427083 23.5 1.28125C25.5625 2.13542 27.4062 3.36458 29.0312 4.96875L32 7.96875L34.9688 4.96875C36.5729 3.36458 38.4062 2.13542 40.4688 1.28125C42.5312 0.427083 44.7083 0 47 0ZM44 28H59.9375L59.5 28.5C59.3542 28.6667 59.1979 28.8438 59.0312 29.0312L32 56.0312L4.96875 29.0312C4.80208 28.8646 4.64583 28.6979 4.5 28.5312C4.35417 28.3646 4.20833 28.1875 4.0625 28H12L18 22.25L32 36.25L42 26.25L44 28Z" fill="white"/>
</svg>
