<svg width="17" height="16" viewBox="0 0 17 16" fill="none" xmlns="http://www.w3.org/2000/svg">
<path d="M8.89128 10.5647C9.06692 10.5597 9.2275 10.4944 9.35798 10.3538L13.1719 6.44639C13.2823 6.3359 13.3425 6.19528 13.3425 6.02954C13.3425 5.69807 13.0815 5.43188 12.7503 5.43188C12.5897 5.43188 12.4342 5.49717 12.3188 5.61269L8.89629 9.13334L5.46379 5.61269C5.34837 5.5022 5.19782 5.43188 5.03222 5.43188C4.70101 5.43188 4.44006 5.69807 4.44006 6.02954C4.44006 6.19528 4.50028 6.3359 4.61068 6.44639L8.42959 10.3538C8.56509 10.4944 8.71564 10.5647 8.89128 10.5647Z" fill="#B0B0B0"/>
</svg>
