<svg width="17" height="17" viewBox="0 0 17 17" fill="none" xmlns="http://www.w3.org/2000/svg">
<g clip-path="url(#clip0_752_66)">
<path d="M2.25 2.5C2.25 1.96957 2.46071 1.46086 2.83579 1.08579C3.21086 0.710714 3.71957 0.5 4.25 0.5L12.25 0.5C12.7804 0.5 13.2891 0.710714 13.6642 1.08579C14.0393 1.46086 14.25 1.96957 14.25 2.5V14.5C14.25 15.0304 14.0393 15.5391 13.6642 15.9142C13.2891 16.2893 12.7804 16.5 12.25 16.5H4.25C3.71957 16.5 3.21086 16.2893 2.83579 15.9142C2.46071 15.5391 2.25 15.0304 2.25 14.5V2.5ZM4.25 3V5C4.25 5.13261 4.30268 5.25979 4.39645 5.35355C4.49021 5.44732 4.61739 5.5 4.75 5.5H11.75C11.8826 5.5 12.0098 5.44732 12.1036 5.35355C12.1973 5.25979 12.25 5.13261 12.25 5V3C12.25 2.86739 12.1973 2.74021 12.1036 2.64645C12.0098 2.55268 11.8826 2.5 11.75 2.5H4.75C4.61739 2.5 4.49021 2.55268 4.39645 2.64645C4.30268 2.74021 4.25 2.86739 4.25 3ZM4.25 7V8C4.25 8.13261 4.30268 8.25979 4.39645 8.35355C4.49021 8.44732 4.61739 8.5 4.75 8.5H5.75C5.88261 8.5 6.00979 8.44732 6.10355 8.35355C6.19732 8.25979 6.25 8.13261 6.25 8V7C6.25 6.86739 6.19732 6.74021 6.10355 6.64645C6.00979 6.55268 5.88261 6.5 5.75 6.5H4.75C4.61739 6.5 4.49021 6.55268 4.39645 6.64645C4.30268 6.74021 4.25 6.86739 4.25 7ZM4.75 9.5C4.61739 9.5 4.49021 9.55268 4.39645 9.64645C4.30268 9.74021 4.25 9.86739 4.25 10V11C4.25 11.1326 4.30268 11.2598 4.39645 11.3536C4.49021 11.4473 4.61739 11.5 4.75 11.5H5.75C5.88261 11.5 6.00979 11.4473 6.10355 11.3536C6.19732 11.2598 6.25 11.1326 6.25 11V10C6.25 9.86739 6.19732 9.74021 6.10355 9.64645C6.00979 9.55268 5.88261 9.5 5.75 9.5H4.75ZM4.25 13V14C4.25 14.1326 4.30268 14.2598 4.39645 14.3536C4.49021 14.4473 4.61739 14.5 4.75 14.5H5.75C5.88261 14.5 6.00979 14.4473 6.10355 14.3536C6.19732 14.2598 6.25 14.1326 6.25 14V13C6.25 12.8674 6.19732 12.7402 6.10355 12.6464C6.00979 12.5527 5.88261 12.5 5.75 12.5H4.75C4.61739 12.5 4.49021 12.5527 4.39645 12.6464C4.30268 12.7402 4.25 12.8674 4.25 13ZM7.75 6.5C7.61739 6.5 7.49021 6.55268 7.39645 6.64645C7.30268 6.74021 7.25 6.86739 7.25 7V8C7.25 8.13261 7.30268 8.25979 7.39645 8.35355C7.49021 8.44732 7.61739 8.5 7.75 8.5H8.75C8.88261 8.5 9.00979 8.44732 9.10355 8.35355C9.19732 8.25979 9.25 8.13261 9.25 8V7C9.25 6.86739 9.19732 6.74021 9.10355 6.64645C9.00979 6.55268 8.88261 6.5 8.75 6.5H7.75ZM7.25 10V11C7.25 11.1326 7.30268 11.2598 7.39645 11.3536C7.49021 11.4473 7.61739 11.5 7.75 11.5H8.75C8.88261 11.5 9.00979 11.4473 9.10355 11.3536C9.19732 11.2598 9.25 11.1326 9.25 11V10C9.25 9.86739 9.19732 9.74021 9.10355 9.64645C9.00979 9.55268 8.88261 9.5 8.75 9.5H7.75C7.61739 9.5 7.49021 9.55268 7.39645 9.64645C7.30268 9.74021 7.25 9.86739 7.25 10ZM7.75 12.5C7.61739 12.5 7.49021 12.5527 7.39645 12.6464C7.30268 12.7402 7.25 12.8674 7.25 13V14C7.25 14.1326 7.30268 14.2598 7.39645 14.3536C7.49021 14.4473 7.61739 14.5 7.75 14.5H8.75C8.88261 14.5 9.00979 14.4473 9.10355 14.3536C9.19732 14.2598 9.25 14.1326 9.25 14V13C9.25 12.8674 9.19732 12.7402 9.10355 12.6464C9.00979 12.5527 8.88261 12.5 8.75 12.5H7.75ZM10.25 7V8C10.25 8.13261 10.3027 8.25979 10.3964 8.35355C10.4902 8.44732 10.6174 8.5 10.75 8.5H11.75C11.8826 8.5 12.0098 8.44732 12.1036 8.35355C12.1973 8.25979 12.25 8.13261 12.25 8V7C12.25 6.86739 12.1973 6.74021 12.1036 6.64645C12.0098 6.55268 11.8826 6.5 11.75 6.5H10.75C10.6174 6.5 10.4902 6.55268 10.3964 6.64645C10.3027 6.74021 10.25 6.86739 10.25 7ZM10.75 9.5C10.6174 9.5 10.4902 9.55268 10.3964 9.64645C10.3027 9.74021 10.25 9.86739 10.25 10V14C10.25 14.1326 10.3027 14.2598 10.3964 14.3536C10.4902 14.4473 10.6174 14.5 10.75 14.5H11.75C11.8826 14.5 12.0098 14.4473 12.1036 14.3536C12.1973 14.2598 12.25 14.1326 12.25 14V10C12.25 9.86739 12.1973 9.74021 12.1036 9.64645C12.0098 9.55268 11.8826 9.5 11.75 9.5H10.75Z" fill="currentcolor"/>
</g>
<defs>
<clipPath id="clip0_752_66">
<rect width="16" height="16" fill="currentcolor" transform="translate(0.25 0.5)"/>
</clipPath>
</defs>
</svg>
