<svg width="29" height="29" viewBox="0 0 29 29" fill="none" xmlns="http://www.w3.org/2000/svg">
<path d="M14.25 28.5C12.3367 28.5 10.5283 28.1323 8.825 27.3968C7.12167 26.6613 5.63393 25.658 4.3618 24.3868C3.0906 23.1156 2.08727 21.6283 1.3518 19.925C0.616335 18.2217 0.249068 16.4133 0.250002 14.5C0.250002 12.5633 0.617735 10.7489 1.3532 9.0568C2.08867 7.36467 3.092 5.88347 4.3632 4.6132C5.6344 3.34107 7.1212 2.33773 8.8236 1.6032C10.526 0.868667 12.3348 0.500933 14.25 0.5C16.1867 0.5 18.0011 0.867733 19.6932 1.6032C21.3853 2.33867 22.8665 3.342 24.1368 4.6132C25.4089 5.8844 26.4123 7.36607 27.1468 9.0582C27.8813 10.7503 28.2491 12.5643 28.25 14.5C28.25 16.4133 27.8823 18.2217 27.1468 19.925C26.4113 21.6283 25.408 23.1161 24.1368 24.3882C22.8656 25.6594 21.3839 26.6627 19.6918 27.3982C17.9997 28.1337 16.1857 28.5009 14.25 28.5ZM14.25 25.63C14.8567 24.79 15.3817 23.915 15.825 23.005C16.2683 22.095 16.63 21.1267 16.91 20.1H11.59C11.87 21.1267 12.2317 22.095 12.675 23.005C13.1183 23.915 13.6433 24.79 14.25 25.63ZM10.61 25.07C10.19 24.3 9.82227 23.5006 9.5068 22.6718C9.19133 21.843 8.92907 20.9857 8.72 20.1H4.59C5.26667 21.2667 6.11273 22.2817 7.1282 23.145C8.14367 24.0083 9.30427 24.65 10.61 25.07ZM17.89 25.07C19.1967 24.65 20.3577 24.0083 21.3732 23.145C22.3887 22.2817 23.2343 21.2667 23.91 20.1H19.78C19.57 20.9867 19.3077 21.8444 18.9932 22.6732C18.6787 23.502 18.3109 24.3009 17.89 25.07ZM3.4 17.3H8.16C8.09 16.8333 8.03727 16.3723 8.0018 15.9168C7.96633 15.4613 7.94907 14.9891 7.95 14.5C7.95 14.01 7.96773 13.5377 8.0032 13.0832C8.03867 12.6287 8.09093 12.1676 8.16 11.7H3.4C3.28333 12.1667 3.1956 12.6277 3.1368 13.0832C3.078 13.5387 3.04907 14.0109 3.05 14.5C3.05 14.99 3.0794 15.4623 3.1382 15.9168C3.197 16.3713 3.28427 16.8324 3.4 17.3ZM10.96 17.3H17.54C17.61 16.8333 17.6627 16.3723 17.6982 15.9168C17.7337 15.4613 17.7509 14.9891 17.75 14.5C17.75 14.01 17.7323 13.5377 17.6968 13.0832C17.6613 12.6287 17.6091 12.1676 17.54 11.7H10.96C10.89 12.1667 10.8373 12.6277 10.8018 13.0832C10.7663 13.5387 10.7491 14.0109 10.75 14.5C10.75 14.99 10.7677 15.4623 10.8032 15.9168C10.8387 16.3713 10.8909 16.8324 10.96 17.3ZM20.34 17.3H25.1C25.2167 16.8333 25.3044 16.3723 25.3632 15.9168C25.422 15.4613 25.4509 14.9891 25.45 14.5C25.45 14.01 25.4206 13.5377 25.3618 13.0832C25.303 12.6287 25.2157 12.1676 25.1 11.7H20.34C20.41 12.1667 20.4627 12.6277 20.4982 13.0832C20.5337 13.5387 20.5509 14.0109 20.55 14.5C20.55 14.99 20.5323 15.4623 20.4968 15.9168C20.4613 16.3713 20.4091 16.8324 20.34 17.3ZM19.78 8.9H23.91C23.2333 7.73333 22.3877 6.71833 21.3732 5.855C20.3587 4.99167 19.1976 4.35 17.89 3.93C18.31 4.7 18.6777 5.4994 18.9932 6.3282C19.3087 7.157 19.5709 8.01427 19.78 8.9ZM11.59 8.9H16.91C16.63 7.87333 16.2683 6.905 15.825 5.995C15.3817 5.085 14.8567 4.21 14.25 3.37C13.6433 4.21 13.1183 5.085 12.675 5.995C12.2317 6.905 11.87 7.87333 11.59 8.9ZM4.59 8.9H8.72C8.93 8.01333 9.19273 7.1556 9.5082 6.3268C9.82367 5.498 10.1909 4.69907 10.61 3.93C9.30333 4.35 8.14227 4.99167 7.1268 5.855C6.11133 6.71833 5.26573 7.73333 4.59 8.9Z" fill="currentcolor"/>
</svg>
