<svg width="28" height="27" viewBox="0 0 28 27" fill="none" xmlns="http://www.w3.org/2000/svg">
<path d="M21.7444 21.039C22.2597 20.5271 23.0859 20.5271 23.6012 21.039L27.0074 23.7885H27.0666C27.7557 24.485 27.7557 25.6144 27.0666 26.3109C26.3775 27.0074 25.2602 27.0074 24.571 26.3109L21.7444 23.0712L21.6371 22.9502C21.4373 22.6973 21.3269 22.382 21.3269 22.0551C21.3269 21.6738 21.4771 21.3082 21.7444 21.039ZM12.3536 0.166626C15.3868 0.166626 18.2958 1.38454 20.4407 3.55244C22.5855 5.72034 23.7905 8.66065 23.7905 11.7265C23.7905 18.1109 18.67 23.2864 12.3536 23.2864C6.0372 23.2864 0.916748 18.1109 0.916748 11.7265C0.916748 5.34217 6.0372 0.166626 12.3536 0.166626Z" fill="currentcolor"/>
</svg>
