<svg width="33" height="33" viewBox="0 0 33 33" fill="none" xmlns="http://www.w3.org/2000/svg">
<path d="M11.2493 28.5C12.3535 28.5 13.2486 27.6046 13.2486 26.5C13.2486 25.3954 12.3535 24.5 11.2493 24.5C10.1451 24.5 9.25 25.3954 9.25 26.5C9.25 27.6046 10.1451 28.5 11.2493 28.5Z" fill="#505050"/>
<path d="M25.2493 28.5C26.3535 28.5 27.2486 27.6046 27.2486 26.5C27.2486 25.3954 26.3535 24.5 25.2493 24.5C24.1451 24.5 23.25 25.3954 23.25 26.5C23.25 27.6046 24.1451 28.5 25.2493 28.5Z" fill="#505050"/>
<path d="M28.8 8.04875C28.6595 7.87691 28.4825 7.7385 28.2819 7.64358C28.0812 7.54867 27.862 7.49962 27.64 7.5H8.61812L8.235 5.32625C8.19415 5.09471 8.07301 4.88496 7.89288 4.73385C7.71274 4.58275 7.48512 4.49995 7.25 4.5H3.25C2.98478 4.5 2.73043 4.60536 2.54289 4.79289C2.35536 4.98043 2.25 5.23478 2.25 5.5C2.25 5.76522 2.35536 6.01957 2.54289 6.20711C2.73043 6.39464 2.98478 6.5 3.25 6.5H6.41125L9.265 22.6737C9.30585 22.9053 9.42699 23.115 9.60712 23.2661C9.78726 23.4172 10.0149 23.5 10.25 23.5H26.25C26.5152 23.5 26.7696 23.3946 26.9571 23.2071C27.1446 23.0196 27.25 22.7652 27.25 22.5C27.25 22.2348 27.1446 21.9804 26.9571 21.7929C26.7696 21.6054 26.5152 21.5 26.25 21.5H11.0887L10.7362 19.5H25.84C26.1868 19.4996 26.5228 19.3793 26.7911 19.1596C27.0594 18.9399 27.2436 18.6343 27.3125 18.2944L29.1125 9.29437C29.1559 9.07656 29.1503 8.85184 29.0963 8.63643C29.0423 8.42102 28.9411 8.22029 28.8 8.04875Z" fill="#505050"/>
</svg>
