<svg width="61" height="49" viewBox="0 0 61 49" fill="none" xmlns="http://www.w3.org/2000/svg">
<g clip-path="url(#clip0_752_18)">
<path d="M59.6125 48.0218C59.148 47.7645 58.9216 47.1868 58.5607 46.5675C58.1998 45.9492 57.8805 45.6396 57.4982 45.8254C57.117 46.0112 56.8074 45.8563 56.6013 45.7528C56.3952 45.6503 55.6627 44.9893 55.3637 44.8249C55.0647 44.6604 55.2089 44.5985 55.1683 44.4639C55.1267 44.3305 55.0338 44.2269 54.849 44.0614C54.6632 43.8969 54.5191 43.7005 54.2927 43.2061C54.0663 42.7117 54.2511 41.7315 54.1891 41.2264C54.1272 40.7213 53.6018 39.6695 53.6018 39.6695C53.6018 39.6695 53.5709 39.566 54.1272 39.6493C54.6835 39.7315 55.2409 39.5766 55.0135 39.1954C54.7871 38.8142 53.8592 38.5249 53.5698 38.432C53.2815 38.3391 53.1982 38.164 53.0231 37.803C52.848 37.4421 52.0749 36.2355 51.7855 35.8436C51.4972 35.4518 50.8683 34.6274 50.4657 34.132C50.0632 33.6376 49.8475 32.8229 49.7439 32.4619C49.6403 32.101 49.4033 31.5137 49.1769 31.2041C48.9505 30.8944 48.3932 30.1107 47.9703 29.6579C47.5475 29.2041 47.1972 28.2346 46.8982 27.6889C46.5993 27.1422 46.3622 26.5442 46.0323 26.2762C45.7023 26.0082 45.2688 25.2447 45.2688 25.0184C45.2688 24.792 45.1556 24.4097 45.052 24.1417C44.9495 23.8737 44.3612 23.4402 44.0825 23.1209C43.8038 22.8016 43.0414 21.925 42.9175 21.7189C42.7936 21.5128 42.9068 21.3473 42.8865 20.3884C42.8663 19.4295 42.2469 19.027 41.8967 18.8006C41.5465 18.5742 40.0612 17.5321 39.9683 17.4915C39.8754 17.4498 39.917 17.4093 39.8444 17.1722C39.7718 16.9352 38.6901 15.8012 38.6068 15.5331C38.5246 15.2651 38.5139 13.925 38.421 13.7702C38.3281 13.6154 37.4728 12.523 37.4728 12.523C37.4728 12.523 37.4728 11.0174 37.3906 10.2337C37.3084 9.44993 36.483 8.73878 36.3185 8.5423C36.1541 8.3469 35.6586 7.9753 35.617 7.89308C35.5754 7.81086 35.6277 6.32556 35.6373 5.93368C35.648 5.5418 35.6576 4.86162 35.4312 4.86162C35.2048 4.86162 34.9988 4.58292 34.9571 4.36723C34.9155 4.15047 34.9155 3.88245 34.8236 3.7383C34.7307 3.59415 34.1221 3.19159 33.8541 3.06773C33.5861 2.94386 33.2251 2.41851 33.2251 2.41851C33.2251 2.41851 33.2145 3.05812 33.112 3.28449C33.0084 3.51086 32.0185 4.10882 31.8957 4.28501C31.7719 4.46013 31.7302 4.60428 31.4419 4.97587C31.1536 5.34747 31.7302 5.68702 31.7099 6.18248C31.6897 6.67794 31.4216 6.90431 31.0394 7.46063C30.6582 8.01695 31.2967 8.45047 31.4419 8.64588C31.5861 8.84129 31.679 9.28549 31.6993 9.46061C31.7196 9.63572 31.7612 10.4611 31.7612 10.8007C31.7612 11.1402 31.5968 12.1717 31.5754 12.7291C31.5551 13.2854 31.3074 13.7809 31.1013 14.0286C30.8952 14.2764 30.1841 15.0601 30.1221 15.2662C30.0602 15.4723 30.1115 16.5241 30.0709 16.7921C30.0292 17.0601 29.9577 17.2865 29.8445 17.6068C29.7313 17.9261 29.9267 18.8444 29.8958 18.9469C29.8648 19.0505 29.9577 19.2042 29.9993 19.2662C30.041 19.3281 30.0816 19.4007 30.0922 19.4925C30.1029 19.5854 30.0922 19.6986 30.0922 19.8534C30.0922 20.0083 30.1435 20.1524 30.1542 20.3585C30.1648 20.5646 30.1649 20.5229 30.4019 21.4615C30.639 22.4001 31.2262 22.6265 31.2882 22.6265C31.3501 22.6265 31.5669 22.6372 31.8039 22.6681C32.041 22.6991 32.247 22.6991 32.247 22.7504C32.247 22.8016 32.3912 23.091 32.4638 23.122C32.5364 23.1529 32.9892 23.5758 33.1344 23.8128C33.2785 24.0499 34.2897 25.2052 34.4339 25.2971C34.578 25.3899 35.1141 25.4102 35.3202 25.5448C35.5262 25.6783 35.475 26.225 35.475 26.4727C35.475 26.7204 36.2171 27.4828 36.2171 27.4828C36.2171 27.4828 36.3922 27.5757 36.3815 28.0808C36.3655 28.8742 37.0831 28.6681 37.2582 28.462C37.4333 28.2559 38.4338 27.4412 39.4952 27.9153C40.5566 28.3894 39.7632 29.5757 39.5881 29.6889C39.413 29.8021 38.7115 30.1737 38.6602 31.1219C38.5833 32.5335 40.0836 33.7817 40.6815 34.3904C41.2795 34.999 41.2592 35.5756 41.0734 35.9889C40.8876 36.4021 40.909 36.8751 41.0531 37.0919C41.1973 37.3087 41.2699 37.5041 41.146 37.6792C41.0222 37.8543 41.0531 37.9782 41.0425 38.2569C41.0318 38.5356 40.8054 39.3086 40.9912 39.5766C41.177 39.8447 41.2176 40.1949 41.2283 40.5665C41.2389 40.9381 41.2592 41.8041 41.4034 42.0518C41.5475 42.2995 41.2283 42.7117 41.1151 42.9071C41.0019 43.1025 40.8054 43.7005 40.61 43.7934C40.4146 43.8863 40.1252 44.0614 39.9704 44.4223C39.8156 44.7832 39.7227 45.0203 39.5785 45.1644C39.4344 45.3086 39.3724 45.1954 38.815 45.7111C38.2587 46.3603 37.9384 46.134 37.712 46.0101C37.4856 45.8862 37.1247 45.4944 36.9699 45.5157C36.8151 45.536 36.0932 46.4949 35.9074 46.7116C35.7216 46.9284 34.4221 48.623 34.4221 48.623H60.2713C60.581 48.3753 60.0759 48.2792 59.6114 48.0218H59.6125ZM36.8076 4.20386C36.9272 4.51138 36.7809 4.95131 36.5001 5.88563C36.2192 6.81995 36.7264 6.65978 36.9272 6.96624C37.1279 7.2727 37.2208 7.74039 37.381 7.90056C37.5412 8.06073 38.0089 8.15469 37.8882 8.64802C37.7675 9.14134 37.9288 9.68911 37.9288 9.68911C38.4755 9.72969 38.4221 10.1429 38.4499 10.49C38.4776 10.837 38.704 11.0367 39.05 12.2646C39.3959 13.4926 40.2651 13.9325 40.878 14.1995C41.4909 14.4664 41.6255 15.2139 41.6661 15.5748C41.7066 15.9357 41.7066 16.0553 41.8924 16.4824C42.0782 16.9095 42.0932 17.1498 42.3462 17.4167C42.5993 17.6837 43.508 17.9634 43.6543 18.2048C43.8006 18.4461 43.8273 18.5518 43.9618 18.965C44.0964 19.3783 44.5363 19.5523 44.8427 19.7531C45.1492 19.9538 45.4834 20.1001 45.7237 20.2603C45.9639 20.4204 46.2704 20.5005 46.5512 20.3265C46.832 20.1524 46.9121 19.6057 46.9121 19.6057C47.6596 18.7248 47.099 18.5379 46.9922 18.3649C46.8854 18.192 47.0189 18.0713 47.0862 17.8716C47.1534 17.6719 47.273 17.5385 47.3531 17.2042C47.4332 16.87 47.6606 16.3233 47.7931 15.8428C47.9255 15.3623 48.0194 15.122 48.0066 14.775C47.9938 14.428 48.0472 14.3212 48.1935 13.8546C48.3398 13.3879 48.2597 12.8807 48.2597 12.7462C48.2597 12.6117 48.6334 12.6127 48.8064 12.3725C48.9794 12.1322 49.0466 12.0788 48.9933 11.8258C48.9399 11.5727 48.6996 11.8386 48.5789 11.7724C48.4583 11.7062 48.218 11.1317 48.139 10.9181C48.06 10.7046 47.9255 10.3576 47.8187 10.0767C47.7119 9.79589 47.525 9.32927 47.351 9.02174C47.1769 8.71422 46.4967 7.11253 46.3633 6.79219C46.2298 6.47185 45.5891 5.13711 45.4962 4.97694C45.4033 4.81677 45.4962 4.72281 45.509 4.48362C45.5219 4.24443 45.4428 4.16328 45.3083 3.90915C45.1738 3.65501 45.146 3.08908 45.1353 2.80078C45.1225 2.45375 44.185 3.34322 43.7066 3.53542C43.1065 3.77567 42.3313 3.82906 41.4642 3.576C40.8204 3.38806 40.1829 2.86912 39.4621 3.28235C38.8994 3.60483 38.3143 4.17716 37.6063 3.94972C36.8984 3.72228 35.9384 3.60269 35.9384 3.60269C35.9384 3.60269 36.6859 3.89633 36.8055 4.20279L36.8076 4.20386ZM28.5183 3.73617C28.6336 4.1825 29.1376 4.1825 29.3832 4.74523C29.8157 5.73614 29.081 5.20652 29.1238 6.40245C29.1665 7.59837 30.2193 7.51188 30.2193 7.51188C30.2193 7.51188 30.104 7.36773 30.5364 6.90644C31.0116 6.40031 31.0116 6.02765 30.8386 5.6678C30.6656 5.30796 30.6656 5.12003 30.7094 4.8755C30.7521 4.63098 31.1558 4.44304 31.1558 4.11203C31.1558 3.78101 31.5444 3.76606 31.7463 3.47776C31.9481 3.18946 32.3229 2.92998 32.5097 2.71429C32.6966 2.49859 32.5535 2.05119 32.467 1.95081C32.3805 1.85044 31.7463 1.73512 31.4868 1.57602C31.2273 1.41799 29.931 0.985529 29.931 0.985529C29.4985 0.885157 29.4985 1.28771 29.4847 1.54719C29.4708 1.80666 29.6139 1.99353 29.773 2.15263C29.931 2.31066 29.946 2.45481 29.8445 2.49859C29.7441 2.5413 29.6139 2.55625 29.3693 2.55625C29.1248 2.55625 29.1099 2.48471 28.9369 2.38327C28.7639 2.2829 28.6059 2.16758 28.4617 2.10992C28.3176 2.05225 28.4478 1.69241 28.2887 1.46177C28.1296 1.23112 27.8274 1.43293 27.5829 1.60592C27.3384 1.7789 27.6406 2.31173 27.7559 2.48471C27.8712 2.65769 28.3902 3.2343 28.5194 3.7383L28.5183 3.73617ZM35.16 46.576C35.3703 46.2536 36.7841 44.9391 37.2059 44.9017C37.6277 44.8644 37.7515 45.3609 37.9128 45.3854C38.074 45.41 38.4584 45.2861 38.5951 45.2242C38.7318 45.1623 38.9795 44.8398 39.1898 44.5045C39.4002 44.1692 39.6234 43.7357 39.7355 43.5254C39.8476 43.315 40.1071 43.2531 40.2438 43.1281C40.3804 43.0043 40.5417 42.7683 40.6783 42.4586C40.815 42.149 40.6538 41.8137 40.5662 41.4666C40.4797 41.1196 40.5043 40.9456 40.5043 40.6476C40.5043 40.3497 40.4915 40.102 40.4178 39.991C40.3431 39.8788 40.232 39.6685 40.1455 39.4079C40.059 39.1474 40.3815 38.9488 40.4178 38.7512C40.4552 38.5526 40.4797 38.3668 40.4178 38.0689C40.3559 37.771 40.4925 37.7336 40.5171 37.4987C40.5417 37.2627 40.4178 37.1763 40.3185 37.0022C40.2192 36.8292 40.2939 36.6178 40.2939 36.4192C40.2939 36.2206 40.4797 36.0967 40.5662 35.7871C40.6527 35.4774 40.5043 35.3162 40.3559 35.0054C40.2074 34.6958 39.9469 34.5217 39.6618 34.2484C39.3767 33.9761 39.0297 33.3674 38.6944 32.9841C38.3591 32.5997 38.0996 31.8063 37.9629 31.1123C37.8263 30.4182 38.2107 30.2068 38.4093 29.8106C38.6079 29.4134 39.1407 29.265 39.3521 28.9799C39.5636 28.6948 39.3148 28.447 38.9806 28.4097C38.6453 28.3723 38.547 28.2858 37.4184 29.0172C36.2897 29.7487 36.0665 29.1913 35.7943 28.7695C35.522 28.3477 35.522 27.9633 35.2112 27.4059C34.9016 26.8475 35.1119 26.8475 35.0009 26.7364L34.5919 26.3275C34.3186 26.0552 33.6491 25.4839 33.3266 25.2736C33.0041 25.0632 32.6571 24.2314 32.4339 23.9965C32.2107 23.7605 31.9128 23.4263 31.5786 23.2896C31.2433 23.1529 31.3309 23.2277 30.9956 23.1775C30.6614 23.1284 30.3015 22.681 29.9662 22.3467C29.631 22.0115 29.6683 21.3302 29.6683 21.0323C29.6683 20.7344 29.631 20.5988 29.4323 20.4738C29.2337 20.35 29.3202 20.0275 29.3704 20.0275C29.4206 20.0275 29.4943 19.8791 29.4569 19.6559C29.4195 19.4327 29.333 19.0729 29.2092 18.8999C29.0853 18.7258 29.222 18.6522 29.2465 18.4162C29.2711 18.1802 29.222 17.7093 29.2465 17.3495C29.2711 16.9896 29.3832 16.618 29.4206 15.8738C29.458 15.1295 29.5946 14.9192 29.8178 14.5967C30.041 14.2742 30.5119 13.6175 30.6987 13.357C30.8845 13.0964 30.9967 12.8733 31.034 12.4643C31.0714 12.0553 31.0586 10.7783 31.0212 9.78628C30.9838 8.7943 30.5877 8.63307 30.2898 8.4099C29.9919 8.18673 29.5829 8.01268 29.3469 7.97637C29.1109 7.939 28.5034 7.31968 28.4169 7.25668C28.3304 7.19475 28.293 7.10826 28.2556 6.97158C28.2183 6.8349 28.4041 6.7356 28.466 6.47506C28.5279 6.21451 28.5279 6.27645 28.5899 5.85467C28.6518 5.43289 28.6272 5.11042 28.6272 5.11042C28.0944 4.73882 27.5851 3.27488 27.5851 3.27488C27.2252 3.08908 26.7298 2.19641 26.7298 2.19641C26.4212 1.94654 26.2226 2.20708 25.9609 2.39715C25.6993 2.58722 25.3673 3.19266 25.1772 3.41903C24.9871 3.6454 24.8088 3.5493 24.6433 3.59735C24.4767 3.64433 24.2034 3.66889 24.0613 3.76393C23.9193 3.85896 23.5979 3.98923 23.3961 4.2391C23.1943 4.48896 22.8857 4.69077 22.1372 4.90433C21.3887 5.11789 21.0566 4.95131 20.2611 4.88084C19.4656 4.8093 18.8719 4.2156 18.5868 4.04903C18.3369 3.90381 17.945 3.59735 17.1025 3.95399C16.4779 4.21774 16.1404 4.20386 15.7486 4.03728C15.3567 3.87071 15.2734 3.15849 15.0716 3.09869C14.8698 3.0389 14.7267 3.00366 14.3466 3.43078C13.9664 3.85789 13.7764 3.64434 13.6578 3.5493C13.5393 3.45427 13.2062 2.87232 12.9328 2.81252C12.6594 2.75273 12.1138 2.93105 11.8522 2.93105C11.5906 2.93105 11.3653 2.70574 11.14 2.50393C10.9147 2.30212 10.7716 1.88675 10.5933 1.8387C10.4149 1.79171 10.3317 2.064 10.2131 2.15903C10.0946 2.25407 9.89279 2.17078 9.71447 2.17078C9.53615 2.17078 9.40588 2.11098 9.09728 2.01595C8.78869 1.92092 8.32527 1.51729 8.0754 1.32722C7.82554 1.13716 7.66003 1.12541 7.2799 1.17239C6.89976 1.21938 7.07808 1.30266 6.69795 1.35071C6.31782 1.3977 6.18755 1.36246 5.91419 1.30373C5.64083 1.24394 5.55755 1.05387 5.37923 0.935343C5.2009 0.816818 5.01084 0.97058 4.79728 1.01863C4.58372 1.06561 4.32211 1.11366 4.02526 1.13716C3.72842 1.16065 3.76365 1.17239 3.57359 1.27917C3.38352 1.38595 3.15821 1.44575 2.89661 1.44575C2.635 1.44575 2.69479 1.37421 2.55278 1.23219C2.40969 1.09017 2.43425 1.05387 2.23244 0.757021C2.03062 0.460175 1.9121 0.495412 1.74552 0.626751C1.57895 0.757021 0.854984 1.39877 0.676662 2.12273C0.498341 2.84669 1.27036 3.91555 1.33015 4.09388C1.38995 4.2722 1.53196 4.87764 1.47217 5.30475C1.41237 5.73187 1.11553 6.06502 0.973509 6.33838C0.831492 6.61173 0.806933 6.62348 0.331765 7.34744C-0.143403 8.07247 0.320019 9.71047 0.925458 10.5893C1.5309 11.4681 1.49459 12.6875 1.49459 12.6875V48.6198H33.5017C33.5017 48.6198 33.6629 48.6198 33.7868 48.3593C33.9107 48.0987 34.2203 47.9129 34.2203 47.9129C34.2203 47.9129 34.2203 47.9001 34.5054 47.5531C34.7905 47.206 34.9518 46.8953 35.1632 46.5739L35.16 46.576Z" fill="#008066"/>
<path d="M18.0199 44.7106H16.9778V45.0726C16.9778 45.6641 16.7194 46.1884 16.2036 46.6454C15.6879 47.1024 15.0312 47.332 14.2346 47.332H14.1577V46.198C14.7311 46.198 15.1614 45.9748 15.4487 45.5274C15.6847 45.1932 15.8021 44.7693 15.8021 44.2546L15.8213 41C15.8213 40.4394 15.659 39.9279 15.3334 39.4656H17.4647C17.1401 39.8767 16.9767 40.3881 16.9767 41V44.0304H18.0189V44.7095L18.0199 44.7106Z" fill="white"/>
<path d="M20.4385 44.7105H17.3611V44.0314H18.4791V41.001C18.4791 40.4511 18.3232 39.9396 18.0103 39.4666H20.1416C19.817 39.9086 19.6536 40.4201 19.6536 41.001V44.0314H20.4374V44.7105H20.4385ZM18.8325 45.7366C18.8325 46.0548 18.635 46.215 18.2399 46.215C17.8448 46.215 17.6569 46.0559 17.6569 45.7366C17.6569 45.4174 17.8512 45.2657 18.2399 45.2657C18.399 45.2657 18.5378 45.3127 18.6552 45.4088C18.7727 45.5039 18.8325 45.6128 18.8325 45.7366ZM20.1608 45.7366C20.1608 46.0548 19.9665 46.215 19.5778 46.215C19.1891 46.215 18.9852 46.0559 18.9852 45.7366C18.9852 45.4174 19.1827 45.2657 19.5778 45.2657C19.7305 45.2657 19.8661 45.3127 19.9836 45.4088C20.101 45.5039 20.1608 45.6128 20.1608 45.7366Z" fill="white"/>
<path d="M28.0658 44.7106H19.8267V44.0315H25.7625L25.7433 42.2119C25.7241 40.8345 25.1347 40.1447 23.975 40.1447C23.4273 40.1447 23.0033 40.3251 22.7033 40.685C22.4417 40.9989 22.3114 41.3865 22.3114 41.85C22.3114 42.3134 22.4737 42.7394 22.7994 43.1922H20.6681C20.9425 42.7864 21.1048 42.2664 21.1561 41.6343C21.2073 41.0021 21.5084 40.4832 22.0594 40.0763C22.6104 39.6706 23.281 39.4666 24.0711 39.4666C24.9254 39.4666 25.6323 39.7133 26.1928 40.2066C26.6712 40.6284 26.9093 41.1858 26.9093 41.8798V44.0464L28.0658 44.0315V44.7106ZM24.5484 38.1864C24.5484 38.3145 24.4897 38.4266 24.3712 38.5216C24.2537 38.6167 24.1149 38.6647 23.9558 38.6647C23.7967 38.6647 23.6675 38.6167 23.5501 38.5216C23.4315 38.4266 23.3728 38.3145 23.3728 38.1864C23.3728 37.8724 23.5671 37.7155 23.9558 37.7155C24.1149 37.7155 24.2537 37.7635 24.3712 37.8585C24.4886 37.9536 24.5484 38.0625 24.5484 38.1864Z" fill="white"/>
<path d="M30.4939 44.7106H27.3781V44.0314H28.8505V38.2782C28.8505 37.7026 28.6882 37.1933 28.3636 36.7512H30.4949C30.1831 37.2243 30.0262 37.7336 30.0262 38.2782V43.1751C30.0262 43.725 30.1821 44.2365 30.4949 44.7095L30.4939 44.7106Z" fill="white"/>
<path d="M33.4858 44.7106H31.3545C31.6663 44.2375 31.8233 43.7495 31.8233 43.2455V38.2333C31.8233 37.7293 31.6674 37.2413 31.3545 36.7683H33.4858C33.1612 37.1997 32.9978 37.7112 32.9978 38.3027V43.1761C32.9978 43.7677 33.1601 44.2792 33.4858 44.7106Z" fill="white"/>
<path d="M20.8666 35.1373H20.0924V35.4609C20.0924 35.9884 19.9002 36.456 19.5169 36.865C19.1336 37.2729 18.6456 37.4779 18.054 37.4779H17.9974V36.4667C18.4235 36.4667 18.7428 36.267 18.9563 35.8677C19.1314 35.5698 19.219 35.1907 19.219 34.7326L19.2329 31.8282C19.2329 31.3285 19.1122 30.8715 18.8709 30.4583H20.4544C20.2131 30.8256 20.0924 31.2815 20.0924 31.8282V34.533H20.8666V35.1384V35.1373Z" fill="white"/>
<path d="M22.4565 35.1378H20.4469V34.5323H21.2776V31.8276C21.2776 31.3364 21.1613 30.8805 20.9295 30.4576H22.5131C22.2718 30.8527 22.1511 31.3087 22.1511 31.8276V34.5323H22.4565V35.1378ZM28.607 35.1378H22.1799V34.5323H22.3721C22.6893 32.9178 23.0929 31.8351 23.583 31.2841C24.0731 30.7331 24.8227 30.4587 25.8307 30.4587C26.4319 30.4587 26.9455 30.6723 27.3715 31.0983C27.7976 31.5254 28.0112 32.0294 28.0112 32.6124V34.5323L28.608 34.5462V35.1378H28.607ZM27.158 34.5323V32.9082C27.158 32.3669 27.0106 31.9173 26.7181 31.5596C26.6134 31.4261 26.4447 31.3108 26.2108 31.2126C25.9759 31.1143 25.772 31.0641 25.5969 31.0641C24.6401 31.0641 23.9631 31.4357 23.5659 32.1789C23.3438 32.6007 23.2317 33.0663 23.2317 33.5756V34.5323H27.1591H27.158Z" fill="white"/>
<path d="M33.5499 32.7982C33.5499 33.4731 33.3459 34.0369 32.9391 34.4907C32.9103 34.527 32.8323 34.5825 32.7052 34.6562C32.2034 34.9776 31.6257 35.1378 30.9722 35.1378H28.1671V34.5462L29.2039 34.5323V32.6124C29.2039 32.0027 29.3812 31.5041 29.7368 31.1186C30.1436 30.6787 30.6647 30.4576 31.299 30.4576C31.9759 30.4576 32.5205 30.684 32.9327 31.1357C33.3448 31.5874 33.5509 32.1416 33.5509 32.7972L33.5499 32.7982ZM32.6049 32.6883C32.6049 31.6055 32.1927 31.0641 31.3694 31.0641C30.9007 31.0641 30.5504 31.2702 30.3187 31.6835C30.1436 32.0134 30.056 32.4267 30.056 32.9221V34.5323H31.299C31.7624 34.5323 32.1105 34.3263 32.3433 33.913C32.5184 33.5916 32.6059 33.1837 32.6059 32.6883H32.6049Z" fill="white"/>
<path d="M25.5286 27.8191H24.4864C24.3978 27.8191 24.2953 27.7956 24.1778 27.7497C24.0604 27.7038 23.9717 27.6504 23.9109 27.5906C23.7614 27.439 23.6866 27.2393 23.6866 26.9937C23.6866 26.7481 23.7614 26.5634 23.9109 26.4054C24.0604 26.2473 24.259 26.1694 24.5078 26.1694C24.7566 26.1694 24.937 26.2473 25.0865 26.4022C25.2168 26.5378 25.2819 26.714 25.2819 26.9286V27.6056H25.5297V27.8191H25.5286ZM24.968 27.6056V27.0375C24.968 26.8667 24.9338 26.7225 24.8666 26.6061C24.7811 26.4577 24.6541 26.3829 24.4864 26.3829C24.181 26.3829 24.0273 26.5741 24.0273 26.9553C24.0273 27.124 24.0614 27.266 24.1287 27.3824C24.2141 27.5308 24.3401 27.6056 24.5067 27.6056H24.968ZM24.4341 25.7668C24.4341 25.8074 24.4181 25.8426 24.3861 25.8725C24.354 25.9024 24.3156 25.9174 24.2729 25.9174C24.2302 25.9174 24.1938 25.9024 24.1618 25.8725C24.1298 25.8426 24.1138 25.8074 24.1138 25.7668C24.1138 25.7263 24.1298 25.6942 24.1618 25.6633C24.1938 25.6334 24.2312 25.6184 24.2729 25.6184C24.3807 25.6184 24.4341 25.6675 24.4341 25.7668ZM24.8014 25.7668C24.8014 25.8074 24.7854 25.8426 24.7534 25.8725C24.7213 25.9024 24.684 25.9174 24.6423 25.9174C24.6007 25.9174 24.5612 25.9024 24.5291 25.8725C24.4971 25.8426 24.4811 25.8074 24.4811 25.7668C24.4811 25.6686 24.5345 25.6184 24.6423 25.6184C24.684 25.6184 24.7213 25.6334 24.7534 25.6633C24.7854 25.6932 24.8014 25.7273 24.8014 25.7668Z" fill="white"/>
<path d="M26.1094 27.8192H25.3716V27.6056H25.677V26.6521C25.677 26.4791 25.6343 26.3179 25.5488 26.1694H26.1297C26.0411 26.3082 25.9962 26.4695 25.9962 26.6521V27.6056H26.1084V27.8192H26.1094ZM27.4495 27.8192H26.0571V27.6056H26.3283V26.6521C26.3283 26.4791 26.2856 26.3179 26.2002 26.1694H26.7811C26.6924 26.3082 26.6476 26.4695 26.6476 26.6521V27.6056H26.9583V26.6521C26.9583 26.4695 26.9135 26.3082 26.8248 26.1694H27.4111C27.3192 26.3115 27.2733 26.4727 27.2733 26.6521V27.6056H27.4484V27.8192H27.4495Z" fill="white"/>
<path d="M28.0881 27.8192H27.3502V27.6056H27.6556V26.6521C27.6556 26.4791 27.6129 26.3179 27.5275 26.1694H28.1084C28.0197 26.3082 27.9749 26.4695 27.9749 26.6521V27.6056H28.087V27.8192H28.0881ZM29.3651 27.8192H28.0123V27.6056H28.276V26.6521C28.276 26.4791 28.2333 26.3179 28.1479 26.1694H28.7287C28.6401 26.3082 28.5953 26.4695 28.5953 26.6521V27.6056H28.9156V26.6521C28.9156 26.4599 28.8708 26.2986 28.78 26.1694H29.3641C29.2776 26.3082 29.2338 26.4695 29.2338 26.6521V27.3365C29.2338 27.5095 29.2776 27.6708 29.3641 27.8192H29.3651Z" fill="white"/>
<path d="M31.4014 27.8192H31.1718C31.1718 28.0338 31.1024 28.2207 30.9636 28.3798C30.8173 28.5528 30.6305 28.6393 30.403 28.6393C29.9983 28.6393 29.7154 28.4684 29.5563 28.1278H29.9236C30.0592 28.2378 30.2066 28.2922 30.3667 28.2922C30.6187 28.2922 30.78 28.1342 30.8515 27.8192H30.34C30.2514 27.8192 30.1532 27.7968 30.0464 27.753C29.9396 27.7081 29.8553 27.6547 29.7944 27.5917C29.6449 27.4401 29.5702 27.2426 29.5702 27.0002C29.5702 26.7578 29.646 26.5741 29.7965 26.414C29.9471 26.2538 30.1478 26.1748 30.3956 26.1748C30.6262 26.1748 30.8173 26.2527 30.9668 26.4076C31.1024 26.5464 31.1697 26.7226 31.1697 26.934V27.6056H31.3993V27.8192H31.4014ZM30.213 25.7381H30.0304C30.0378 25.7188 30.0496 25.69 30.0667 25.6537H30.0613C30.0368 25.5971 29.9962 25.5693 29.9385 25.5693C29.8424 25.5693 29.7955 25.627 29.7955 25.7445C29.7955 25.8801 29.8435 25.9484 29.9385 25.9484H30.024C30.0848 25.9484 30.1382 25.9356 30.1831 25.91V26.0146H29.5969V25.91C29.6332 25.9356 29.6908 25.9484 29.7688 25.9484L29.756 25.9431C29.7111 25.8833 29.6887 25.8213 29.6887 25.7583C29.6887 25.6857 29.7122 25.6249 29.7602 25.5779C29.8083 25.5298 29.8691 25.5063 29.9439 25.5063C30.0186 25.5063 30.0774 25.5288 30.1211 25.5747C30.1382 25.6153 30.1692 25.6697 30.2119 25.7391L30.213 25.7381ZM30.8515 27.6056V27.0376C30.8515 26.8667 30.8173 26.7226 30.7501 26.6062C30.6678 26.4578 30.5418 26.383 30.3721 26.383C30.0699 26.383 29.9183 26.5741 29.9183 26.9553C29.9183 27.1305 29.9503 27.2757 30.0144 27.3921C30.0998 27.5373 30.2268 27.6099 30.3977 27.6099C30.4479 27.6099 30.5248 27.6088 30.6273 27.6046H30.8515V27.6056Z" fill="white"/>
<path d="M33.19 26.9948C33.19 27.233 33.1152 27.4316 32.9658 27.5917C32.9551 27.6045 32.9262 27.6238 32.8793 27.6494C32.6956 27.7626 32.4831 27.8192 32.2429 27.8192H31.2135V27.611L31.5936 27.6056V26.9286C31.5936 26.714 31.6588 26.5378 31.789 26.4022C31.9385 26.2474 32.1297 26.1694 32.3624 26.1694C32.6112 26.1694 32.8109 26.2495 32.9615 26.4086C33.1131 26.5677 33.1879 26.7631 33.1879 26.9948H33.19ZM32.843 26.9564C32.843 26.5752 32.6913 26.3841 32.3891 26.3841C32.2172 26.3841 32.088 26.4567 32.0037 26.6019C31.9396 26.7183 31.9076 26.8635 31.9076 27.0386V27.6067H32.3635C32.5333 27.6067 32.6614 27.5341 32.7469 27.3889C32.8109 27.2757 32.843 27.1315 32.843 26.9575V26.9564Z" fill="white"/>
<path d="M22.1192 17.0772C22.0775 16.7376 22.0007 16.4044 21.7625 16.1428C21.0461 15.3569 19.7102 15.7776 18.8517 16.0371C17.0685 16.5764 15.5544 17.9538 14.3264 19.3014C13.1967 20.5432 11.7605 22.2335 11.6441 23.9922C11.5384 25.5853 11.4327 25.7669 11.3879 25.8021C11.3398 25.8395 11.2779 25.8939 11.2362 25.8363C10.1716 24.3712 8.34785 23.3761 6.52833 23.4914C6.42689 23.4978 6.43116 23.3675 6.53047 23.3611C8.3895 23.2437 10.2528 24.2517 11.3516 25.7402C11.3473 25.7273 11.3452 25.7167 11.3452 25.7167C11.3452 25.7167 11.3238 24.1257 9.40177 22.7108C7.84813 21.5672 6.06064 20.7472 4.24646 20.1108C3.69441 19.9164 2.87221 19.8694 2.43228 20.3307C2.03612 20.7461 2.0137 21.4284 2.05962 21.9634C2.27317 24.446 2.27317 23.9388 2.48673 24.6329C2.70029 25.3269 3.95495 26.3146 6.11723 26.3146C8.27952 26.3146 9.00241 26.3958 9.70716 26.4353C10.4119 26.4748 12.4311 26.7631 12.1364 29.5543C11.9367 31.4497 11.6068 33.33 11.4103 35.2254C11.3473 35.8287 11.296 36.4341 11.2138 37.0353C11.0974 37.8895 10.9394 38.7384 10.8379 39.5948C10.7248 40.5558 10.7248 41.5328 10.6383 42.497C10.6383 42.497 10.3937 46.4682 11.9004 46.9775C12.4813 47.174 13.0066 47.3683 13.1882 46.5974C13.4434 45.5114 13.1572 44.2771 13.1102 43.174C13.0579 41.9696 13.0568 40.7629 13.0579 39.5574C13.0579 37.6941 13.0323 35.8308 13.0365 33.9675C13.0365 33.5884 13.0675 33.2062 13.059 32.8271C13.0269 31.4796 13.059 30.6381 13.059 30.6381C13.059 30.6381 13.0397 30.1694 13.3857 29.5522C12.9191 27.4155 13.0611 24.8646 14.115 22.9554C14.8731 21.5832 15.9174 20.2677 17.1283 19.2651C17.5437 18.9212 18.0039 18.5539 18.5122 18.3521C18.5656 18.3307 18.699 18.3702 18.6019 18.4098C18.0114 18.6447 17.4668 19.0974 17.0034 19.5181C15.7979 20.6126 14.6083 22.0285 13.9901 23.5437C13.4199 24.9414 13.248 26.4705 13.3515 27.9708C13.3836 28.4299 13.4338 28.888 13.5149 29.3418C13.7562 28.9798 14.1246 28.5837 14.6884 28.2078C16.6863 26.8763 18.3894 25.2426 19.9185 23.3985C20.9233 22.1876 22.164 20.8401 22.2495 19.186C22.2783 18.6169 22.2174 18.0552 22.1608 17.4904C22.147 17.3537 22.1363 17.2138 22.1192 17.0739V17.0772Z" fill="white"/>
</g>
<defs>
<clipPath id="clip0_752_18">
<rect width="60.2353" height="48.0934" fill="white" transform="translate(0.132202 0.529541)"/>
</clipPath>
</defs>
</svg>
